<svg xmlns="http://www.w3.org/2000/svg" width="30" height="30" viewBox="0 0 30 30" fill="none"><path d="M23.75 5H6.25C5.25544 5 4.30161 5.39509 3.59835 6.09835C2.89509 6.80161 2.5 7.75544 2.5 8.75V21.25C2.5 22.2446 2.89509 23.1984 3.59835 23.9016C4.30161 24.6049 5.25544 25 6.25 25H23.75C24.7446 25 25.6984 24.6049 26.4017 23.9016C27.1049 23.1984 27.5 22.2446 27.5 21.25V8.75C27.5 7.75544 27.1049 6.80161 26.4017 6.09835C25.6984 5.39509 24.7446 5 23.75 5ZM23.2375 7.5L15.8875 14.85C15.7713 14.9672 15.633 15.0602 15.4807 15.1236C15.3284 15.1871 15.165 15.2197 15 15.2197C14.835 15.2197 14.6716 15.1871 14.5193 15.1236C14.367 15.0602 14.2287 14.9672 14.1125 14.85L6.7625 7.5H23.2375ZM25 21.25C25 21.5815 24.8683 21.8995 24.6339 22.1339C24.3995 22.3683 24.0815 22.5 23.75 22.5H6.25C5.91848 22.5 5.60054 22.3683 5.36612 22.1339C5.1317 21.8995 5 21.5815 5 21.25V9.2625L12.35 16.6125C13.0531 17.3148 14.0062 17.7092 15 17.7092C15.9938 17.7092 16.9469 17.3148 17.65 16.6125L25 9.2625V21.25Z" fill="white"></path></svg>