<svg xmlns="http://www.w3.org/2000/svg" width="48" height="48" viewBox="0 0 48 48" fill="none"><circle cx="24" cy="24" r="23.5" stroke="currentColor"></circle><g clip-path="url(#clip0_306_775)"><path d="M22.4982 31.7797C22.6539 31.8859 22.8687 31.8693 23.0065 31.7309C23.1624 31.5743 23.1618 31.3211 23.0053 31.1652L23.0052 31.1652L17.2897 25.4729L16.4318 24.6186L17.6425 24.6186L33.4465 24.6194L33.5316 24.6136C33.7198 24.5815 33.8633 24.4168 33.8633 24.2194C33.8633 23.9984 33.6842 23.8194 33.4633 23.8194L33.4633 23.8194L17.6449 23.8186L16.4345 23.8186L17.292 22.9644L22.9923 17.2862L23.0531 17.216C23.1601 17.0608 23.1443 16.846 23.0065 16.7076C22.8506 16.5511 22.5973 16.5505 22.4408 16.7064L15.1808 23.9364L15.1728 23.9444C15.1635 23.9542 15.1546 23.9645 15.1464 23.9752C15.146 23.9757 15.1456 23.9762 15.1452 23.9767L15.1414 23.9818C15.1368 23.988 15.1327 23.9938 15.1295 23.9987L15.1292 23.9993C15.1238 24.0074 15.1184 24.0161 15.1128 24.0261L14.6771 23.7809M22.4982 31.7797L15.0704 24.2969C15.0702 24.296 15.0701 24.2952 15.0699 24.2943C15.0679 24.2819 15.0663 24.2704 15.0653 24.2601L15.0653 24.2601L15.0646 24.2536C15.0642 24.2502 15.0638 24.2458 15.0635 24.2401L15.0634 24.2284L15.066 24.1719C15.0671 24.1628 15.0685 24.1538 15.0701 24.1449L15.0706 24.1423C15.0712 24.139 15.0721 24.1344 15.0734 24.1287C15.0765 24.1157 15.0799 24.104 15.0835 24.0929L15.0841 24.0913C15.0854 24.0872 15.0874 24.0816 15.0898 24.0753L14.6233 23.8954M22.4982 31.7797L22.4278 31.7192L15.1808 24.5033C15.1612 24.4838 15.1443 24.4631 15.1299 24.4416C15.1227 24.4296 15.118 24.4217 15.1141 24.4147L15.1103 24.4081L15.107 24.4027C15.107 24.4027 15.107 24.4026 15.1069 24.4024C15.1067 24.402 15.1062 24.401 15.1053 24.3993C15.0991 24.386 15.0944 24.375 15.0907 24.3656L15.0908 24.3656L15.0873 24.3572C15.0864 24.3551 15.0851 24.3517 15.0832 24.3459L22.4982 31.7797ZM14.6771 23.7809L15.1135 24.0249C15.1103 24.0305 15.1078 24.0354 15.1061 24.0388L15.105 24.041C15.0996 24.0519 15.0944 24.0635 15.0894 24.0764L14.6233 23.8954M14.6771 23.7809C14.6702 23.7931 14.6637 23.8055 14.6578 23.8173C14.6453 23.8425 14.6338 23.8683 14.6233 23.8954M14.6771 23.7809C14.6883 23.7609 14.6999 23.7419 14.7122 23.7234C14.7208 23.7103 14.7304 23.6966 14.7404 23.6832L14.6091 23.9351C14.6133 23.9224 14.6181 23.9089 14.6233 23.8954" fill="currentColor" stroke="currentColor"></path></g><defs><clipPath id="clip0_306_775"><rect width="26.1818" height="26.1818" fill="white" transform="translate(12.2188 10.8008)"></rect></clipPath></defs></svg>