<svg xmlns="http://www.w3.org/2000/svg" width="32" height="32" viewBox="0 0 32 32" fill="none"><path d="M15.9987 2.66602C13.1697 2.66602 10.4566 3.78982 8.45623 5.79021C6.45584 7.7906 5.33203 10.5037 5.33203 13.3327C5.33203 20.5327 14.732 28.666 15.132 29.0127C15.3735 29.2193 15.6809 29.3328 15.9987 29.3328C16.3165 29.3328 16.6239 29.2193 16.8654 29.0127C17.332 28.666 26.6654 20.5327 26.6654 13.3327C26.6654 10.5037 25.5416 7.7906 23.5412 5.79021C21.5408 3.78982 18.8277 2.66602 15.9987 2.66602ZM15.9987 26.1993C13.1587 23.5327 7.9987 17.786 7.9987 13.3327C7.9987 11.211 8.84155 9.17612 10.3418 7.67583C11.8421 6.17554 13.877 5.33268 15.9987 5.33268C18.1204 5.33268 20.1553 6.17554 21.6556 7.67583C23.1558 9.17612 23.9987 11.211 23.9987 13.3327C23.9987 17.786 18.8387 23.546 15.9987 26.1993ZM15.9987 7.99935C14.9439 7.99935 13.9127 8.31214 13.0357 8.89818C12.1586 9.48421 11.475 10.3172 11.0713 11.2917C10.6677 12.2662 10.5621 13.3386 10.7678 14.3732C10.9736 15.4077 11.4816 16.358 12.2275 17.1039C12.9733 17.8498 13.9237 18.3577 14.9582 18.5635C15.9928 18.7693 17.0651 18.6637 18.0397 18.26C19.0142 17.8564 19.8472 17.1728 20.4332 16.2957C21.0192 15.4187 21.332 14.3875 21.332 13.3327C21.332 11.9182 20.7701 10.5616 19.7699 9.56145C18.7697 8.56125 17.4132 7.99935 15.9987 7.99935ZM15.9987 15.9993C15.4713 15.9993 14.9557 15.843 14.5172 15.5499C14.0786 15.2569 13.7369 14.8404 13.535 14.3532C13.3332 13.8659 13.2804 13.3297 13.3833 12.8124C13.4862 12.2952 13.7401 11.82 14.1131 11.4471C14.486 11.0741 14.9612 10.8201 15.4785 10.7173C15.9957 10.6144 16.5319 10.6672 17.0192 10.869C17.5065 11.0708 17.9229 11.4126 18.2159 11.8512C18.509 12.2897 18.6654 12.8053 18.6654 13.3327C18.6654 14.0399 18.3844 14.7182 17.8843 15.2183C17.3842 15.7184 16.7059 15.9993 15.9987 15.9993Z" fill="white"></path></svg>