<svg xmlns="http://www.w3.org/2000/svg" width="30" height="30" viewBox="0 0 30 30" fill="none"><path d="M24.2993 16.2492C24.0243 16.2492 23.7368 16.1617 23.4618 16.0992C22.9049 15.9765 22.3576 15.8136 21.8243 15.6117C21.2444 15.4008 20.607 15.4117 20.0347 15.6425C19.4624 15.8732 18.9956 16.3075 18.7243 16.8617L18.4493 17.4242C17.2318 16.7469 16.113 15.9058 15.1243 14.9242C14.1427 13.9355 13.3015 12.8167 12.6243 11.5992L13.1493 11.2492C13.7035 10.9779 14.1377 10.5111 14.3685 9.93884C14.5993 9.36654 14.6102 8.72911 14.3993 8.14922C14.2008 7.61475 14.0379 7.06772 13.9118 6.51172C13.8493 6.23672 13.7993 5.94922 13.7618 5.66172C13.61 4.78125 13.1488 3.9839 12.4613 3.41327C11.7738 2.84265 10.9051 2.53624 10.0118 2.54922H6.26177C5.72306 2.54417 5.18958 2.65524 4.69766 2.87489C4.20573 3.09453 3.76691 3.41759 3.41106 3.82208C3.05521 4.22656 2.79069 4.70297 2.63551 5.21887C2.48032 5.73477 2.43812 6.27805 2.51177 6.81172C3.17769 12.0485 5.56931 16.9141 9.30884 20.64C13.0484 24.366 17.9227 26.7399 23.1618 27.3867H23.6368C24.5585 27.3881 25.4485 27.0499 26.1368 26.4367C26.5322 26.083 26.8481 25.6494 27.0636 25.1646C27.2791 24.6798 27.3892 24.1548 27.3868 23.6242V19.8742C27.3715 19.006 27.0553 18.1699 26.4922 17.5088C25.9291 16.8477 25.154 16.4025 24.2993 16.2492ZM24.9243 23.7492C24.924 23.9267 24.886 24.1021 24.8127 24.2638C24.7395 24.4254 24.6326 24.5696 24.4993 24.6867C24.36 24.808 24.1967 24.8985 24.0201 24.9523C23.8435 25.0062 23.6575 25.0222 23.4743 24.9992C18.7929 24.399 14.4446 22.2573 11.1152 18.9121C7.78577 15.5668 5.66478 11.2084 5.08677 6.52422C5.06688 6.34112 5.08431 6.15589 5.13802 5.97971C5.19174 5.80354 5.28061 5.64008 5.39927 5.49922C5.51641 5.36589 5.6606 5.25903 5.82224 5.18575C5.98389 5.11247 6.15929 5.07445 6.33677 5.07422H10.0868C10.3775 5.06776 10.6613 5.16282 10.8895 5.34306C11.1176 5.5233 11.2758 5.77744 11.3368 6.06172C11.3868 6.40339 11.4493 6.74089 11.5243 7.07422C11.6687 7.73315 11.8608 8.3807 12.0993 9.01172L10.3493 9.82422C10.1996 9.89288 10.065 9.99041 9.95322 10.1112C9.84139 10.232 9.75452 10.3737 9.69761 10.5282C9.6407 10.6827 9.61486 10.8469 9.62158 11.0114C9.6283 11.1759 9.66745 11.3374 9.73677 11.4867C11.5358 15.3402 14.6333 18.4377 18.4868 20.2367C18.7911 20.3617 19.1324 20.3617 19.4368 20.2367C19.5927 20.181 19.7359 20.0948 19.8582 19.9832C19.9805 19.8716 20.0795 19.7369 20.1493 19.5867L20.9243 17.8367C21.5705 18.0678 22.23 18.2598 22.8993 18.4117C23.2326 18.4867 23.5701 18.5492 23.9118 18.5992C24.1961 18.6602 24.4502 18.8184 24.6304 19.0465C24.8107 19.2747 24.9057 19.5585 24.8993 19.8492L24.9243 23.7492Z" fill="white"></path></svg>