<svg xmlns="http://www.w3.org/2000/svg" width="48" height="48" viewBox="0 0 48 48" fill="none"><circle cx="24" cy="24" r="23.5" transform="rotate(180 24 24)" stroke="currentColor"></circle><g clip-path="url(#clip0_306_782)"><path d="M25.5018 16.2203C25.3461 16.1141 25.1313 16.1307 24.9935 16.2691C24.8376 16.4257 24.8382 16.6789 24.9947 16.8348L24.9948 16.8348L30.7103 22.5271L31.5682 23.3814L30.3575 23.3814L14.5535 23.3806L14.4684 23.3864C14.2802 23.4185 14.1367 23.5832 14.1367 23.7806C14.1367 24.0016 14.3158 24.1806 14.5367 24.1806H14.5367L30.3551 24.1814L31.5655 24.1814L30.708 25.0356L25.0077 30.7138L24.9469 30.784C24.8399 30.9392 24.8557 31.154 24.9935 31.2924C25.1494 31.4489 25.4027 31.4495 25.5592 31.2936L32.8192 24.0636L32.8272 24.0556C32.8365 24.0458 32.8454 24.0355 32.8536 24.0248C32.854 24.0243 32.8544 24.0238 32.8548 24.0233L32.8586 24.0182C32.8632 24.012 32.8673 24.0062 32.8705 24.0013L32.8708 24.0007C32.8762 23.9926 32.8816 23.9839 32.8872 23.9739L33.3229 24.2191M25.5018 16.2203L32.9296 23.7031C32.9298 23.704 32.9299 23.7048 32.9301 23.7057C32.9321 23.7181 32.9337 23.7296 32.9347 23.7399L32.9347 23.7399L32.9354 23.7464C32.9358 23.7498 32.9362 23.7542 32.9365 23.7599L32.9366 23.7716L32.934 23.8281C32.9329 23.8372 32.9315 23.8462 32.9299 23.8551L32.9294 23.8577C32.9288 23.861 32.9279 23.8656 32.9266 23.8713C32.9235 23.8843 32.9201 23.896 32.9165 23.9071L32.9159 23.9087C32.9146 23.9128 32.9126 23.9184 32.9102 23.9247L33.3767 24.1046M25.5018 16.2203L25.5722 16.2808L32.8192 23.4967C32.8388 23.5163 32.8557 23.5369 32.8701 23.5584C32.8773 23.5704 32.882 23.5783 32.8859 23.5853L32.8897 23.5919L32.893 23.5973C32.893 23.5973 32.893 23.5974 32.8931 23.5976C32.8933 23.598 32.8938 23.599 32.8947 23.6007C32.9009 23.614 32.9056 23.625 32.9093 23.6344L32.9092 23.6344L32.9127 23.6428C32.9136 23.6449 32.9149 23.6483 32.9168 23.6541L25.5018 16.2203ZM33.3229 24.2191L32.8865 23.9751C32.8897 23.9695 32.8922 23.9646 32.8939 23.9612L32.895 23.959C32.9004 23.9481 32.9056 23.9365 32.9106 23.9236L33.3767 24.1046M33.3229 24.2191C33.3298 24.2069 33.3363 24.1945 33.3422 24.1827C33.3547 24.1575 33.3662 24.1317 33.3767 24.1046M33.3229 24.2191C33.3117 24.2391 33.3001 24.2581 33.2878 24.2766C33.2792 24.2897 33.2696 24.3034 33.2596 24.3168L33.3909 24.0649C33.3867 24.0776 33.3819 24.0912 33.3767 24.1046" fill="currentColor" stroke="currentColor"></path></g><defs><clipPath id="clip0_306_782"><rect width="26.1818" height="26.1818" fill="white" transform="translate(35.7812 37.1992) rotate(180)"></rect></clipPath></defs></svg>