<svg xmlns="http://www.w3.org/2000/svg" width="48" height="48" viewBox="0 0 48 48" fill="none"><circle cx="24" cy="24" r="23.5" stroke="#28B5A4"></circle><g clip-path="url(#clip0_306_883)"><path d="M22.4982 31.7807C22.6539 31.8869 22.8687 31.8703 23.0065 31.7319C23.1624 31.5753 23.1618 31.322 23.0053 31.1662L23.0052 31.1661L17.2897 25.4739L16.4318 24.6196L17.6425 24.6196L33.4465 24.6203L33.5316 24.6146C33.7198 24.5825 33.8633 24.4178 33.8633 24.2203C33.8633 23.9994 33.6842 23.8203 33.4633 23.8203L33.4633 23.8203L17.6449 23.8196L16.4345 23.8196L17.292 22.9654L22.9923 17.2872L23.0531 17.217C23.1601 17.0618 23.1443 16.847 23.0065 16.7086C22.8506 16.552 22.5973 16.5515 22.4408 16.7074L15.1808 23.9374L15.1728 23.9454C15.1635 23.9552 15.1546 23.9655 15.1464 23.9762C15.146 23.9767 15.1456 23.9772 15.1452 23.9777L15.1414 23.9828C15.1368 23.9889 15.1327 23.9948 15.1295 23.9997L15.1292 24.0002C15.1238 24.0084 15.1184 24.0171 15.1128 24.027L14.6771 23.7819M22.4982 31.7807L15.0704 24.2979C15.0702 24.297 15.0701 24.2961 15.0699 24.2953C15.0679 24.2829 15.0663 24.2714 15.0653 24.2611L15.0653 24.2611L15.0646 24.2545C15.0642 24.2512 15.0638 24.2468 15.0635 24.241L15.0634 24.2294L15.066 24.1729C15.0671 24.1637 15.0685 24.1547 15.0701 24.1459L15.0706 24.1433C15.0712 24.1399 15.0721 24.1354 15.0734 24.1297C15.0765 24.1167 15.0799 24.105 15.0835 24.0939L15.0841 24.0923C15.0854 24.0882 15.0874 24.0826 15.0898 24.0763L14.6233 23.8964M22.4982 31.7807L22.4278 31.7201L15.1808 24.5043C15.1612 24.4847 15.1443 24.464 15.1299 24.4426C15.1227 24.4306 15.118 24.4227 15.1141 24.4157L15.1103 24.409L15.107 24.4036C15.107 24.4036 15.107 24.4036 15.1069 24.4034C15.1067 24.403 15.1062 24.402 15.1053 24.4003C15.0991 24.387 15.0944 24.376 15.0907 24.3666L15.0908 24.3666L15.0873 24.3582C15.0864 24.3561 15.0851 24.3527 15.0832 24.3468L22.4982 31.7807ZM14.6771 23.7819L15.1135 24.0259C15.1103 24.0315 15.1078 24.0364 15.1061 24.0398L15.105 24.042C15.0996 24.0529 15.0944 24.0645 15.0894 24.0774L14.6233 23.8964M14.6771 23.7819C14.6702 23.7941 14.6637 23.8065 14.6578 23.8183C14.6453 23.8435 14.6338 23.8693 14.6233 23.8964M14.6771 23.7819C14.6883 23.7619 14.6999 23.7429 14.7122 23.7243C14.7208 23.7112 14.7304 23.6976 14.7404 23.6842L14.6091 23.9361C14.6133 23.9234 14.6181 23.9098 14.6233 23.8964" fill="#28B5A4" stroke="#28B5A4"></path></g><defs><clipPath id="clip0_306_883"><rect width="26.1818" height="26.1818" fill="white" transform="translate(12.2188 10.7998)"></rect></clipPath></defs></svg>