<svg xmlns:xlink="http://www.w3.org/1999/xlink" xmlns="http://www.w3.org/2000/svg" width="64" height="64" viewBox="0 0 64 64" fill="none"><path d="M32 31C23.8394 31 17.1057 37.1094 16.1233 45.004C15.9869 46.1001 16.8954 47 18 47H46C47.1046 47 48.0131 46.1001 47.8767 45.004C46.8943 37.1094 40.1606 31 32 31Z" stroke="currentColor" stroke-width="2px" stroke-linecap="round" stroke-linejoin="round" fill="none"></path><path d="M45.7539 34C47.22 32.1711 49.4729 31 51.9993 31C55.7342 31 58.8714 33.5595 59.7524 37.0202C60.0249 38.0907 59.1038 39 57.9993 39H48.9993" stroke="currentColor" stroke-width="2px" stroke-linecap="round" stroke-linejoin="round" fill="none"></path><path d="M18.2454 34C16.7792 32.1711 14.5264 31 12 31C8.26504 31 5.12788 33.5595 4.24685 37.0202C3.97435 38.0907 4.89543 39 6 39H15" stroke="currentColor" stroke-width="2px" stroke-linecap="round" stroke-linejoin="round" fill="none"></path><circle cx="32" cy="24" r="7" stroke="currentColor" stroke-width="2px" fill="none"></circle><circle cx="52" cy="27" r="4" stroke="currentColor" stroke-width="2px" fill="none"></circle><circle cx="12" cy="27" r="4" stroke="currentColor" stroke-width="2px" fill="none"></circle></svg>