<svg xmlns:xlink="http://www.w3.org/1999/xlink" xmlns="http://www.w3.org/2000/svg" width="64" height="64" viewBox="0 0 64 64" fill="none"><circle cx="32" cy="32" r="27" stroke="currentColor" stroke-width="2px" fill="none"></circle><path d="M12.5455 14.0717C12.0462 18.6424 11.2614 19.9018 13.5442 23.9647C15.5417 27.5196 14.5429 28.5353 17.0397 31.0746C19.5365 33.6139 20.5352 30.0589 21.0346 31.0746C21.534 32.0903 24.0307 32.5981 25.5288 33.106C27.0269 33.6139 28.0256 34.1217 28.525 35.1374C29.0243 36.1531 32.5199 34.6296 30.5224 39.7081C28.525 44.7866 34.0179 43.7709 35.0167 46.818C36.0154 49.8651 34.0179 50.373 33.5186 53.4201C33.1191 55.8578 33.685 56.1286 34.0179 55.9594C34.8502 54.7744 36.6146 52.4044 37.0141 52.4044C37.5135 52.4044 40.5096 49.8651 42.5071 47.8337C44.5045 45.8023 45.5032 44.7866 46.5019 43.263C47.3009 42.0442 47.8335 40.3852 48 39.7081C48 39.2002 47.7004 38.1845 46.5019 38.1845C45.3035 38.1845 44.338 38.1845 44.0051 38.1845C43.8387 38.0152 43.4059 37.372 43.0064 36.1531C42.5071 34.6296 39.0115 34.6296 38.0128 34.1217C37.0141 33.6139 35.0167 34.1217 34.0179 34.6296C33.0192 35.1374 30.0231 32.5981 30.0231 32.0903C30.0231 31.5824 29.0243 31.0746 28.0256 31.0746C27.0269 31.0746 27.0269 28.5353 25.5288 29.551C24.0307 30.5667 23.032 24.9804 27.5263 26.5039C28.1921 27.1811 29.6236 28.3322 30.0231 27.5196C30.5224 26.5039 30.0231 24.9804 31.0218 23.9647C32.0205 22.949 31.5211 19.9018 32.5199 19.9018C33.5186 19.9018 34.0179 18.8861 35.516 18.3783C37.0141 17.8704 37.1431 15.4025 35.0167 14.0717C28.525 10.0089 28.3125 6 28.3125 6" stroke="currentColor" stroke-width="2px" stroke-linecap="round" stroke-linejoin="round" fill="none"></path><path d="M53.9578 17C53.9578 17 46.6824 18.6529 46.1143 20.9304C45.5541 23.1764 47.2349 23.3635 47.2349 26.5454C47.2349 29.9143 54.5181 22.0534 55.0784 36.0907C55.1861 38.789 57.4914 34.8158 59 32.8037" stroke="currentColor" stroke-width="2px" stroke-linecap="round" stroke-linejoin="round" fill="none"></path></svg>