<svg xmlns:xlink="http://www.w3.org/1999/xlink" xmlns="http://www.w3.org/2000/svg" width="64" height="64" viewBox="0 0 64 64" fill="none"><path d="M17 10L17.8321 9.4453C17.6466 9.1671 17.3344 9 17 9C16.6656 9 16.3534 9.1671 16.1679 9.4453L17 10ZM9 22L8.16795 21.4453C7.96338 21.7522 7.94431 22.1467 8.11833 22.4719C8.29234 22.797 8.6312 23 9 23V22ZM25 22V23C25.3688 23 25.7077 22.797 25.8817 22.4719C26.0557 22.1467 26.0366 21.7522 25.8321 21.4453L25 22ZM22.5312 22V21C22.1561 21 21.8126 21.2099 21.6414 21.5437C21.4703 21.8775 21.5003 22.279 21.7192 22.5836L22.5312 22ZM29 31V32C29.3751 32 29.7187 31.7901 29.8898 31.4563C30.061 31.1225 30.0309 30.721 29.812 30.4164L29 31ZM23.4211 31V30C23.0534 30 22.7153 30.2018 22.5408 30.5255C22.3663 30.8491 22.3835 31.2424 22.5856 31.5496L23.4211 31ZM30 41V42C30.3677 42 30.7057 41.7982 30.8802 41.4745C31.0547 41.1509 31.0375 40.7576 30.8354 40.4504L30 41ZM5 41L4.16458 40.4504C3.96249 40.7576 3.94528 41.1509 4.11977 41.4745C4.29426 41.7982 4.6323 42 5 42V41ZM11.5789 31L12.4144 31.5496C12.6165 31.2424 12.6337 30.8491 12.4592 30.5255C12.2847 30.2018 11.9466 30 11.5789 30V31ZM6 31L5.18798 30.4164C4.96905 30.721 4.939 31.1225 5.11016 31.4563C5.28131 31.7901 5.62488 32 6 32V31ZM12.4688 22L13.2808 22.5836C13.4997 22.279 13.5297 21.8775 13.3586 21.5437C13.1874 21.2099 12.8439 21 12.4688 21V22ZM16.1679 9.4453L8.16795 21.4453L9.83205 22.5547L17.8321 10.5547L16.1679 9.4453ZM25.8321 21.4453L17.8321 9.4453L16.1679 10.5547L24.1679 22.5547L25.8321 21.4453ZM22.5312 23H25V21H22.5312V23ZM29.812 30.4164L23.3433 21.4164L21.7192 22.5836L28.188 31.5836L29.812 30.4164ZM23.4211 32H29V30H23.4211V32ZM22.5856 31.5496L29.1646 41.5496L30.8354 40.4504L24.2565 30.4504L22.5856 31.5496ZM30 40H5V42H30V40ZM5.83542 41.5496L12.4144 31.5496L10.7435 30.4504L4.16458 40.4504L5.83542 41.5496ZM6 32H11.5789V30H6V32ZM11.6567 21.4164L5.18798 30.4164L6.81202 31.5836L13.2808 22.5836L11.6567 21.4164ZM9 23H12.4688V21H9V23Z" fill="currentColor"></path><line x1="17" y1="53" x2="17" y2="41" stroke="currentColor" stroke-width="2px" stroke-linecap="round" fill="none"></line><line x1="5" y1="53" x2="59" y2="53" stroke="currentColor" stroke-width="2px" stroke-linecap="round" fill="none"></line><path d="M32 53L38.1176 40H51.8824L58 53" stroke="currentColor" stroke-width="2px" stroke-linecap="round" stroke-linejoin="round" fill="none"></path><path d="M51 52H46L51 42V52Z" fill="currentColor"></path><path d="M49.9354 18.1944L50.2904 19.1293C50.0095 19.2359 49.6955 19.2106 49.4354 19.0604C49.1752 18.9101 48.9963 18.6508 48.9483 18.3543L49.9354 18.1944ZM40.0726 18.1461L41.0581 18.3157C40.9952 18.6816 40.7346 18.9825 40.3815 19.0972L40.0726 18.1461ZM51 23C52.1046 23 53 22.1046 53 21H55C55 23.2091 53.2091 25 51 25V23ZM53 21C53 19.8954 52.1046 19 51 19V17C53.2091 17 55 18.7909 55 21H53ZM51 19C50.7483 19 50.5096 19.046 50.2904 19.1293L49.5805 17.2595C50.023 17.0915 50.502 17 51 17V19ZM48.9483 18.3543C48.6402 16.4524 46.9888 15 45 15V13C47.9856 13 50.4601 15.1796 50.9226 18.0345L48.9483 18.3543ZM45 15C43.0248 15 41.3822 16.4327 41.0581 18.3157L39.0871 17.9765C39.5735 15.1502 42.0346 13 45 13V15ZM40.3815 19.0972C39.5785 19.358 39 20.1127 39 21H37C37 19.2209 38.1608 17.7155 39.7638 17.195L40.3815 19.0972ZM39 21C39 22.1046 39.8954 23 41 23V25C38.7909 25 37 23.2091 37 21H39ZM41 23H45V25H41V23ZM45 23H51V25H45V23Z" fill="currentColor"></path></svg>